<svg class="rich-terminal" viewBox="0 0 1238 782.0" xmlns="http://www.w3.org/2000/svg">
    <!-- Generated with Rich https://www.textualize.io -->
    <style>

    @font-face {
        font-family: "Fira Code";
        src: local("FiraCode-Regular"),
                url("https://cdnjs.cloudflare.com/ajax/libs/firacode/6.2.0/woff2/FiraCode-Regular.woff2") format("woff2"),
                url("https://cdnjs.cloudflare.com/ajax/libs/firacode/6.2.0/woff/FiraCode-Regular.woff") format("woff");
        font-style: normal;
        font-weight: 400;
    }
    @font-face {
        font-family: "Fira Code";
        src: local("FiraCode-Bold"),
                url("https://cdnjs.cloudflare.com/ajax/libs/firacode/6.2.0/woff2/FiraCode-Bold.woff2") format("woff2"),
                url("https://cdnjs.cloudflare.com/ajax/libs/firacode/6.2.0/woff/FiraCode-Bold.woff") format("woff");
        font-style: bold;
        font-weight: 700;
    }

    .terminal-1058886805-matrix {
        font-family: Fira Code, monospace;
        font-size: 20px;
        line-height: 24.4px;
        font-variant-east-asian: full-width;
    }

    .terminal-1058886805-title {
        font-size: 18px;
        font-weight: bold;
        font-family: arial;
    }

    .terminal-1058886805-r1 { fill: #c5c8c6 }
.terminal-1058886805-r2 { fill: #8ab4f8;font-weight: bold }
.terminal-1058886805-r3 { fill: #ffffff;font-weight: bold }
.terminal-1058886805-r4 { fill: #81c995;font-weight: bold }
.terminal-1058886805-r5 { fill: #444746 }
.terminal-1058886805-r6 { fill: #003062;font-weight: bold }
.terminal-1058886805-r7 { fill: #333538 }
.terminal-1058886805-r8 { fill: #a8c7fa;font-weight: bold }
.terminal-1058886805-r9 { fill: #9aa0a6 }
.terminal-1058886805-r10 { fill: #0178d4 }
.terminal-1058886805-r11 { fill: #1e1e1e }
.terminal-1058886805-r12 { fill: #e3e3e3 }
.terminal-1058886805-r13 { fill: #d3e3fd;font-style: italic; }
.terminal-1058886805-r14 { fill: #9aa0a6;font-weight: bold }
    </style>

    <defs>
    <clipPath id="terminal-1058886805-clip-terminal">
      <rect x="0" y="0" width="1219.0" height="731.0" />
    </clipPath>
    <clipPath id="terminal-1058886805-line-0">
    <rect x="0" y="1.5" width="1220" height="24.65"/>
            </clipPath>
<clipPath id="terminal-1058886805-line-1">
    <rect x="0" y="25.9" width="1220" height="24.65"/>
            </clipPath>
<clipPath id="terminal-1058886805-line-2">
    <rect x="0" y="50.3" width="1220" height="24.65"/>
            </clipPath>
<clipPath id="terminal-1058886805-line-3">
    <rect x="0" y="74.7" width="1220" height="24.65"/>
            </clipPath>
<clipPath id="terminal-1058886805-line-4">
    <rect x="0" y="99.1" width="1220" height="24.65"/>
            </clipPath>
<clipPath id="terminal-1058886805-line-5">
    <rect x="0" y="123.5" width="1220" height="24.65"/>
            </clipPath>
<clipPath id="terminal-1058886805-line-6">
    <rect x="0" y="147.9" width="1220" height="24.65"/>
            </clipPath>
<clipPath id="terminal-1058886805-line-7">
    <rect x="0" y="172.3" width="1220" height="24.65"/>
            </clipPath>
<clipPath id="terminal-1058886805-line-8">
    <rect x="0" y="196.7" width="1220" height="24.65"/>
            </clipPath>
<clipPath id="terminal-1058886805-line-9">
    <rect x="0" y="221.1" width="1220" height="24.65"/>
            </clipPath>
<clipPath id="terminal-1058886805-line-10">
    <rect x="0" y="245.5" width="1220" height="24.65"/>
            </clipPath>
<clipPath id="terminal-1058886805-line-11">
    <rect x="0" y="269.9" width="1220" height="24.65"/>
            </clipPath>
<clipPath id="terminal-1058886805-line-12">
    <rect x="0" y="294.3" width="1220" height="24.65"/>
            </clipPath>
<clipPath id="terminal-1058886805-line-13">
    <rect x="0" y="318.7" width="1220" height="24.65"/>
            </clipPath>
<clipPath id="terminal-1058886805-line-14">
    <rect x="0" y="343.1" width="1220" height="24.65"/>
            </clipPath>
<clipPath id="terminal-1058886805-line-15">
    <rect x="0" y="367.5" width="1220" height="24.65"/>
            </clipPath>
<clipPath id="terminal-1058886805-line-16">
    <rect x="0" y="391.9" width="1220" height="24.65"/>
            </clipPath>
<clipPath id="terminal-1058886805-line-17">
    <rect x="0" y="416.3" width="1220" height="24.65"/>
            </clipPath>
<clipPath id="terminal-1058886805-line-18">
    <rect x="0" y="440.7" width="1220" height="24.65"/>
            </clipPath>
<clipPath id="terminal-1058886805-line-19">
    <rect x="0" y="465.1" width="1220" height="24.65"/>
            </clipPath>
<clipPath id="terminal-1058886805-line-20">
    <rect x="0" y="489.5" width="1220" height="24.65"/>
            </clipPath>
<clipPath id="terminal-1058886805-line-21">
    <rect x="0" y="513.9" width="1220" height="24.65"/>
            </clipPath>
<clipPath id="terminal-1058886805-line-22">
    <rect x="0" y="538.3" width="1220" height="24.65"/>
            </clipPath>
<clipPath id="terminal-1058886805-line-23">
    <rect x="0" y="562.7" width="1220" height="24.65"/>
            </clipPath>
<clipPath id="terminal-1058886805-line-24">
    <rect x="0" y="587.1" width="1220" height="24.65"/>
            </clipPath>
<clipPath id="terminal-1058886805-line-25">
    <rect x="0" y="611.5" width="1220" height="24.65"/>
            </clipPath>
<clipPath id="terminal-1058886805-line-26">
    <rect x="0" y="635.9" width="1220" height="24.65"/>
            </clipPath>
<clipPath id="terminal-1058886805-line-27">
    <rect x="0" y="660.3" width="1220" height="24.65"/>
            </clipPath>
<clipPath id="terminal-1058886805-line-28">
    <rect x="0" y="684.7" width="1220" height="24.65"/>
            </clipPath>
    </defs>

    <rect fill="#292929" stroke="rgba(255,255,255,0.35)" stroke-width="1" x="1" y="1" width="1236" height="780" rx="8"/><text class="terminal-1058886805-title" fill="#c5c8c6" text-anchor="middle" x="618" y="27">Agent&#160;Substrate&#160;Onboarding</text>
            <g transform="translate(26,22)">
            <circle cx="0" cy="0" r="7" fill="#ff5f57"/>
            <circle cx="22" cy="0" r="7" fill="#febc2e"/>
            <circle cx="44" cy="0" r="7" fill="#28c840"/>
            </g>
        
    <g transform="translate(9, 41)" clip-path="url(#terminal-1058886805-clip-terminal)">
    <rect fill="#1e1f20" x="0" y="1.5" width="24.4" height="24.65" shape-rendering="crispEdges"/><rect fill="#1e1f20" x="24.4" y="1.5" width="195.2" height="24.65" shape-rendering="crispEdges"/><rect fill="#1e1f20" x="219.6" y="1.5" width="207.4" height="24.65" shape-rendering="crispEdges"/><rect fill="#1e1f20" x="427" y="1.5" width="61" height="24.65" shape-rendering="crispEdges"/><rect fill="#1e1f20" x="488" y="1.5" width="244" height="24.65" shape-rendering="crispEdges"/><rect fill="#1e1f20" x="732" y="1.5" width="36.6" height="24.65" shape-rendering="crispEdges"/><rect fill="#1e1f20" x="768.6" y="1.5" width="292.8" height="24.65" shape-rendering="crispEdges"/><rect fill="#1e1f20" x="1061.4" y="1.5" width="36.6" height="24.65" shape-rendering="crispEdges"/><rect fill="#1e1f20" x="1098" y="1.5" width="97.6" height="24.65" shape-rendering="crispEdges"/><rect fill="#1e1f20" x="1195.6" y="1.5" width="24.4" height="24.65" shape-rendering="crispEdges"/><rect fill="#1e1f20" x="0" y="25.9" width="24.4" height="24.65" shape-rendering="crispEdges"/><rect fill="#1e1f20" x="24.4" y="25.9" width="402.6" height="24.65" shape-rendering="crispEdges"/><rect fill="#1e1f20" x="427" y="25.9" width="268.4" height="24.65" shape-rendering="crispEdges"/><rect fill="#1e1f20" x="695.4" y="25.9" width="207.4" height="24.65" shape-rendering="crispEdges"/><rect fill="#1e1f20" x="902.8" y="25.9" width="36.6" height="24.65" shape-rendering="crispEdges"/><rect fill="#a8c7fa" x="939.4" y="25.9" width="256.2" height="24.65" shape-rendering="crispEdges"/><rect fill="#1e1f20" x="1195.6" y="25.9" width="24.4" height="24.65" shape-rendering="crispEdges"/><rect fill="#1e1f20" x="0" y="50.3" width="1220" height="24.65" shape-rendering="crispEdges"/><rect fill="#131314" x="0" y="74.7" width="1220" height="24.65" shape-rendering="crispEdges"/><rect fill="#131314" x="0" y="99.1" width="24.4" height="24.65" shape-rendering="crispEdges"/><rect fill="#131314" x="24.4" y="99.1" width="1171.2" height="24.65" shape-rendering="crispEdges"/><rect fill="#131314" x="1195.6" y="99.1" width="24.4" height="24.65" shape-rendering="crispEdges"/><rect fill="#131314" x="0" y="123.5" width="24.4" height="24.65" shape-rendering="crispEdges"/><rect fill="#1e1f20" x="24.4" y="123.5" width="12.2" height="24.65" shape-rendering="crispEdges"/><rect fill="#1e1f20" x="36.6" y="123.5" width="1146.8" height="24.65" shape-rendering="crispEdges"/><rect fill="#1e1f20" x="1183.4" y="123.5" width="12.2" height="24.65" shape-rendering="crispEdges"/><rect fill="#131314" x="1195.6" y="123.5" width="24.4" height="24.65" shape-rendering="crispEdges"/><rect fill="#131314" x="0" y="147.9" width="24.4" height="24.65" shape-rendering="crispEdges"/><rect fill="#1e1f20" x="24.4" y="147.9" width="12.2" height="24.65" shape-rendering="crispEdges"/><rect fill="#1e1f20" x="36.6" y="147.9" width="1146.8" height="24.65" shape-rendering="crispEdges"/><rect fill="#1e1f20" x="1183.4" y="147.9" width="12.2" height="24.65" shape-rendering="crispEdges"/><rect fill="#131314" x="1195.6" y="147.9" width="24.4" height="24.65" shape-rendering="crispEdges"/><rect fill="#131314" x="0" y="172.3" width="24.4" height="24.65" shape-rendering="crispEdges"/><rect fill="#1e1f20" x="24.4" y="172.3" width="12.2" height="24.65" shape-rendering="crispEdges"/><rect fill="#1e1f20" x="36.6" y="172.3" width="36.6" height="24.65" shape-rendering="crispEdges"/><rect fill="#1e1f20" x="73.2" y="172.3" width="707.6" height="24.65" shape-rendering="crispEdges"/><rect fill="#1e1f20" x="780.8" y="172.3" width="366" height="24.65" shape-rendering="crispEdges"/><rect fill="#1e1f20" x="1146.8" y="172.3" width="36.6" height="24.65" shape-rendering="crispEdges"/><rect fill="#1e1f20" x="1183.4" y="172.3" width="12.2" height="24.65" shape-rendering="crispEdges"/><rect fill="#131314" x="1195.6" y="172.3" width="24.4" height="24.65" shape-rendering="crispEdges"/><rect fill="#131314" x="0" y="196.7" width="24.4" height="24.65" shape-rendering="crispEdges"/><rect fill="#1e1f20" x="24.4" y="196.7" width="12.2" height="24.65" shape-rendering="crispEdges"/><rect fill="#1e1f20" x="36.6" y="196.7" width="36.6" height="24.65" shape-rendering="crispEdges"/><rect fill="#1e1f20" x="73.2" y="196.7" width="1073.6" height="24.65" shape-rendering="crispEdges"/><rect fill="#1e1f20" x="1146.8" y="196.7" width="36.6" height="24.65" shape-rendering="crispEdges"/><rect fill="#1e1f20" x="1183.4" y="196.7" width="12.2" height="24.65" shape-rendering="crispEdges"/><rect fill="#131314" x="1195.6" y="196.7" width="24.4" height="24.65" shape-rendering="crispEdges"/><rect fill="#131314" x="0" y="221.1" width="24.4" height="24.65" shape-rendering="crispEdges"/><rect fill="#1e1f20" x="24.4" y="221.1" width="12.2" height="24.65" shape-rendering="crispEdges"/><rect fill="#1e1f20" x="36.6" y="221.1" width="36.6" height="24.65" shape-rendering="crispEdges"/><rect fill="#1e1f20" x="73.2" y="221.1" width="1037" height="24.65" shape-rendering="crispEdges"/><rect fill="#1e1f20" x="1110.2" y="221.1" width="36.6" height="24.65" shape-rendering="crispEdges"/><rect fill="#1e1f20" x="1146.8" y="221.1" width="36.6" height="24.65" shape-rendering="crispEdges"/><rect fill="#1e1f20" x="1183.4" y="221.1" width="12.2" height="24.65" shape-rendering="crispEdges"/><rect fill="#131314" x="1195.6" y="221.1" width="24.4" height="24.65" shape-rendering="crispEdges"/><rect fill="#131314" x="0" y="245.5" width="24.4" height="24.65" shape-rendering="crispEdges"/><rect fill="#1e1f20" x="24.4" y="245.5" width="12.2" height="24.65" shape-rendering="crispEdges"/><rect fill="#1e1f20" x="36.6" y="245.5" width="36.6" height="24.65" shape-rendering="crispEdges"/><rect fill="#1e1f20" x="73.2" y="245.5" width="1073.6" height="24.65" shape-rendering="crispEdges"/><rect fill="#1e1f20" x="1146.8" y="245.5" width="36.6" height="24.65" shape-rendering="crispEdges"/><rect fill="#1e1f20" x="1183.4" y="245.5" width="12.2" height="24.65" shape-rendering="crispEdges"/><rect fill="#131314" x="1195.6" y="245.5" width="24.4" height="24.65" shape-rendering="crispEdges"/><rect fill="#131314" x="0" y="269.9" width="24.4" height="24.65" shape-rendering="crispEdges"/><rect fill="#1e1f20" x="24.4" y="269.9" width="12.2" height="24.65" shape-rendering="crispEdges"/><rect fill="#1e1f20" x="36.6" y="269.9" width="36.6" height="24.65" shape-rendering="crispEdges"/><rect fill="#1e1f20" x="73.2" y="269.9" width="36.6" height="24.65" shape-rendering="crispEdges"/><rect fill="#a8c7fa" x="109.8" y="269.9" width="305" height="24.65" shape-rendering="crispEdges"/><rect fill="#1e1f20" x="414.8" y="269.9" width="683.2" height="24.65" shape-rendering="crispEdges"/><rect fill="#1e1f20" x="1098" y="269.9" width="48.8" height="24.65" shape-rendering="crispEdges"/><rect fill="#1e1f20" x="1146.8" y="269.9" width="36.6" height="24.65" shape-rendering="crispEdges"/><rect fill="#1e1f20" x="1183.4" y="269.9" width="12.2" height="24.65" shape-rendering="crispEdges"/><rect fill="#131314" x="1195.6" y="269.9" width="24.4" height="24.65" shape-rendering="crispEdges"/><rect fill="#131314" x="0" y="294.3" width="24.4" height="24.65" shape-rendering="crispEdges"/><rect fill="#1e1f20" x="24.4" y="294.3" width="12.2" height="24.65" shape-rendering="crispEdges"/><rect fill="#1e1f20" x="36.6" y="294.3" width="36.6" height="24.65" shape-rendering="crispEdges"/><rect fill="#1e1f20" x="73.2" y="294.3" width="36.6" height="24.65" shape-rendering="crispEdges"/><rect fill="#1e1f20" x="109.8" y="294.3" width="292.8" height="24.65" shape-rendering="crispEdges"/><rect fill="#1e1f20" x="402.6" y="294.3" width="488" height="24.65" shape-rendering="crispEdges"/><rect fill="#1e1f20" x="890.6" y="294.3" width="207.4" height="24.65" shape-rendering="crispEdges"/><rect fill="#1e1f20" x="1098" y="294.3" width="48.8" height="24.65" shape-rendering="crispEdges"/><rect fill="#1e1f20" x="1146.8" y="294.3" width="36.6" height="24.65" shape-rendering="crispEdges"/><rect fill="#1e1f20" x="1183.4" y="294.3" width="12.2" height="24.65" shape-rendering="crispEdges"/><rect fill="#131314" x="1195.6" y="294.3" width="24.4" height="24.65" shape-rendering="crispEdges"/><rect fill="#131314" x="0" y="318.7" width="24.4" height="24.65" shape-rendering="crispEdges"/><rect fill="#1e1f20" x="24.4" y="318.7" width="12.2" height="24.65" shape-rendering="crispEdges"/><rect fill="#1e1f20" x="36.6" y="318.7" width="36.6" height="24.65" shape-rendering="crispEdges"/><rect fill="#1e1f20" x="73.2" y="318.7" width="36.6" height="24.65" shape-rendering="crispEdges"/><rect fill="#1e1f20" x="109.8" y="318.7" width="292.8" height="24.65" shape-rendering="crispEdges"/><rect fill="#1e1f20" x="402.6" y="318.7" width="646.6" height="24.65" shape-rendering="crispEdges"/><rect fill="#1e1f20" x="1049.2" y="318.7" width="48.8" height="24.65" shape-rendering="crispEdges"/><rect fill="#1e1f20" x="1098" y="318.7" width="48.8" height="24.65" shape-rendering="crispEdges"/><rect fill="#1e1f20" x="1146.8" y="318.7" width="36.6" height="24.65" shape-rendering="crispEdges"/><rect fill="#1e1f20" x="1183.4" y="318.7" width="12.2" height="24.65" shape-rendering="crispEdges"/><rect fill="#131314" x="1195.6" y="318.7" width="24.4" height="24.65" shape-rendering="crispEdges"/><rect fill="#131314" x="0" y="343.1" width="24.4" height="24.65" shape-rendering="crispEdges"/><rect fill="#1e1f20" x="24.4" y="343.1" width="12.2" height="24.65" shape-rendering="crispEdges"/><rect fill="#1e1f20" x="36.6" y="343.1" width="36.6" height="24.65" shape-rendering="crispEdges"/><rect fill="#1e1f20" x="73.2" y="343.1" width="36.6" height="24.65" shape-rendering="crispEdges"/><rect fill="#1e1f20" x="109.8" y="343.1" width="292.8" height="24.65" shape-rendering="crispEdges"/><rect fill="#1e1f20" x="402.6" y="343.1" width="610" height="24.65" shape-rendering="crispEdges"/><rect fill="#1e1f20" x="1012.6" y="343.1" width="85.4" height="24.65" shape-rendering="crispEdges"/><rect fill="#1e1f20" x="1098" y="343.1" width="48.8" height="24.65" shape-rendering="crispEdges"/><rect fill="#1e1f20" x="1146.8" y="343.1" width="36.6" height="24.65" shape-rendering="crispEdges"/><rect fill="#1e1f20" x="1183.4" y="343.1" width="12.2" height="24.65" shape-rendering="crispEdges"/><rect fill="#131314" x="1195.6" y="343.1" width="24.4" height="24.65" shape-rendering="crispEdges"/><rect fill="#131314" x="0" y="367.5" width="24.4" height="24.65" shape-rendering="crispEdges"/><rect fill="#1e1f20" x="24.4" y="367.5" width="12.2" height="24.65" shape-rendering="crispEdges"/><rect fill="#1e1f20" x="36.6" y="367.5" width="36.6" height="24.65" shape-rendering="crispEdges"/><rect fill="#1e1f20" x="73.2" y="367.5" width="36.6" height="24.65" shape-rendering="crispEdges"/><rect fill="#1e1f20" x="109.8" y="367.5" width="292.8" height="24.65" shape-rendering="crispEdges"/><rect fill="#1e1f20" x="402.6" y="367.5" width="329.4" height="24.65" shape-rendering="crispEdges"/><rect fill="#1e1f20" x="732" y="367.5" width="366" height="24.65" shape-rendering="crispEdges"/><rect fill="#1e1f20" x="1098" y="367.5" width="48.8" height="24.65" shape-rendering="crispEdges"/><rect fill="#1e1f20" x="1146.8" y="367.5" width="36.6" height="24.65" shape-rendering="crispEdges"/><rect fill="#1e1f20" x="1183.4" y="367.5" width="12.2" height="24.65" shape-rendering="crispEdges"/><rect fill="#131314" x="1195.6" y="367.5" width="24.4" height="24.65" shape-rendering="crispEdges"/><rect fill="#131314" x="0" y="391.9" width="24.4" height="24.65" shape-rendering="crispEdges"/><rect fill="#1e1f20" x="24.4" y="391.9" width="12.2" height="24.65" shape-rendering="crispEdges"/><rect fill="#1e1f20" x="36.6" y="391.9" width="36.6" height="24.65" shape-rendering="crispEdges"/><rect fill="#1e1f20" x="73.2" y="391.9" width="36.6" height="24.65" shape-rendering="crispEdges"/><rect fill="#1e1f20" x="109.8" y="391.9" width="292.8" height="24.65" shape-rendering="crispEdges"/><rect fill="#1e1f20" x="402.6" y="391.9" width="170.8" height="24.65" shape-rendering="crispEdges"/><rect fill="#1e1f20" x="573.4" y="391.9" width="524.6" height="24.65" shape-rendering="crispEdges"/><rect fill="#1e1f20" x="1098" y="391.9" width="48.8" height="24.65" shape-rendering="crispEdges"/><rect fill="#1e1f20" x="1146.8" y="391.9" width="36.6" height="24.65" shape-rendering="crispEdges"/><rect fill="#1e1f20" x="1183.4" y="391.9" width="12.2" height="24.65" shape-rendering="crispEdges"/><rect fill="#131314" x="1195.6" y="391.9" width="24.4" height="24.65" shape-rendering="crispEdges"/><rect fill="#131314" x="0" y="416.3" width="24.4" height="24.65" shape-rendering="crispEdges"/><rect fill="#1e1f20" x="24.4" y="416.3" width="12.2" height="24.65" shape-rendering="crispEdges"/><rect fill="#1e1f20" x="36.6" y="416.3" width="36.6" height="24.65" shape-rendering="crispEdges"/><rect fill="#1e1f20" x="73.2" y="416.3" width="36.6" height="24.65" shape-rendering="crispEdges"/><rect fill="#1e1f20" x="109.8" y="416.3" width="292.8" height="24.65" shape-rendering="crispEdges"/><rect fill="#1e1f20" x="402.6" y="416.3" width="402.6" height="24.65" shape-rendering="crispEdges"/><rect fill="#1e1f20" x="805.2" y="416.3" width="292.8" height="24.65" shape-rendering="crispEdges"/><rect fill="#1e1f20" x="1098" y="416.3" width="48.8" height="24.65" shape-rendering="crispEdges"/><rect fill="#1e1f20" x="1146.8" y="416.3" width="36.6" height="24.65" shape-rendering="crispEdges"/><rect fill="#1e1f20" x="1183.4" y="416.3" width="12.2" height="24.65" shape-rendering="crispEdges"/><rect fill="#131314" x="1195.6" y="416.3" width="24.4" height="24.65" shape-rendering="crispEdges"/><rect fill="#131314" x="0" y="440.7" width="24.4" height="24.65" shape-rendering="crispEdges"/><rect fill="#1e1f20" x="24.4" y="440.7" width="12.2" height="24.65" shape-rendering="crispEdges"/><rect fill="#1e1f20" x="36.6" y="440.7" width="36.6" height="24.65" shape-rendering="crispEdges"/><rect fill="#1e1f20" x="73.2" y="440.7" width="36.6" height="24.65" shape-rendering="crispEdges"/><rect fill="#1e1f20" x="109.8" y="440.7" width="292.8" height="24.65" shape-rendering="crispEdges"/><rect fill="#1e1f20" x="402.6" y="440.7" width="390.4" height="24.65" shape-rendering="crispEdges"/><rect fill="#1e1f20" x="793" y="440.7" width="305" height="24.65" shape-rendering="crispEdges"/><rect fill="#1e1f20" x="1098" y="440.7" width="48.8" height="24.65" shape-rendering="crispEdges"/><rect fill="#1e1f20" x="1146.8" y="440.7" width="36.6" height="24.65" shape-rendering="crispEdges"/><rect fill="#1e1f20" x="1183.4" y="440.7" width="12.2" height="24.65" shape-rendering="crispEdges"/><rect fill="#131314" x="1195.6" y="440.7" width="24.4" height="24.65" shape-rendering="crispEdges"/><rect fill="#131314" x="0" y="465.1" width="24.4" height="24.65" shape-rendering="crispEdges"/><rect fill="#1e1f20" x="24.4" y="465.1" width="12.2" height="24.65" shape-rendering="crispEdges"/><rect fill="#1e1f20" x="36.6" y="465.1" width="36.6" height="24.65" shape-rendering="crispEdges"/><rect fill="#1e1f20" x="73.2" y="465.1" width="1024.8" height="24.65" shape-rendering="crispEdges"/><rect fill="#1e1f20" x="1098" y="465.1" width="48.8" height="24.65" shape-rendering="crispEdges"/><rect fill="#1e1f20" x="1146.8" y="465.1" width="36.6" height="24.65" shape-rendering="crispEdges"/><rect fill="#1e1f20" x="1183.4" y="465.1" width="12.2" height="24.65" shape-rendering="crispEdges"/><rect fill="#131314" x="1195.6" y="465.1" width="24.4" height="24.65" shape-rendering="crispEdges"/><rect fill="#131314" x="0" y="489.5" width="24.4" height="24.65" shape-rendering="crispEdges"/><rect fill="#1e1f20" x="24.4" y="489.5" width="12.2" height="24.65" shape-rendering="crispEdges"/><rect fill="#1e1f20" x="36.6" y="489.5" width="36.6" height="24.65" shape-rendering="crispEdges"/><rect fill="#1e1f20" x="73.2" y="489.5" width="1073.6" height="24.65" shape-rendering="crispEdges"/><rect fill="#1e1f20" x="1146.8" y="489.5" width="36.6" height="24.65" shape-rendering="crispEdges"/><rect fill="#1e1f20" x="1183.4" y="489.5" width="12.2" height="24.65" shape-rendering="crispEdges"/><rect fill="#131314" x="1195.6" y="489.5" width="24.4" height="24.65" shape-rendering="crispEdges"/><rect fill="#131314" x="0" y="513.9" width="24.4" height="24.65" shape-rendering="crispEdges"/><rect fill="#1e1f20" x="24.4" y="513.9" width="12.2" height="24.65" shape-rendering="crispEdges"/><rect fill="#1e1f20" x="36.6" y="513.9" width="36.6" height="24.65" shape-rendering="crispEdges"/><rect fill="#1e1f20" x="73.2" y="513.9" width="268.4" height="24.65" shape-rendering="crispEdges"/><rect fill="#1e1f20" x="341.6" y="513.9" width="12.2" height="24.65" shape-rendering="crispEdges"/><rect fill="#1e1f20" x="353.8" y="513.9" width="109.8" height="24.65" shape-rendering="crispEdges"/><rect fill="#1e1f20" x="463.6" y="513.9" width="24.4" height="24.65" shape-rendering="crispEdges"/><rect fill="#1e1f20" x="488" y="513.9" width="36.6" height="24.65" shape-rendering="crispEdges"/><rect fill="#1e1f20" x="524.6" y="513.9" width="622.2" height="24.65" shape-rendering="crispEdges"/><rect fill="#1e1f20" x="1146.8" y="513.9" width="36.6" height="24.65" shape-rendering="crispEdges"/><rect fill="#1e1f20" x="1183.4" y="513.9" width="12.2" height="24.65" shape-rendering="crispEdges"/><rect fill="#131314" x="1195.6" y="513.9" width="24.4" height="24.65" shape-rendering="crispEdges"/><rect fill="#131314" x="0" y="538.3" width="24.4" height="24.65" shape-rendering="crispEdges"/><rect fill="#1e1f20" x="24.4" y="538.3" width="12.2" height="24.65" shape-rendering="crispEdges"/><rect fill="#1e1f20" x="36.6" y="538.3" width="36.6" height="24.65" shape-rendering="crispEdges"/><rect fill="#1e1f20" x="73.2" y="538.3" width="1073.6" height="24.65" shape-rendering="crispEdges"/><rect fill="#1e1f20" x="1146.8" y="538.3" width="36.6" height="24.65" shape-rendering="crispEdges"/><rect fill="#1e1f20" x="1183.4" y="538.3" width="12.2" height="24.65" shape-rendering="crispEdges"/><rect fill="#131314" x="1195.6" y="538.3" width="24.4" height="24.65" shape-rendering="crispEdges"/><rect fill="#131314" x="0" y="562.7" width="24.4" height="24.65" shape-rendering="crispEdges"/><rect fill="#1e1f20" x="24.4" y="562.7" width="12.2" height="24.65" shape-rendering="crispEdges"/><rect fill="#1e1f20" x="36.6" y="562.7" width="1146.8" height="24.65" shape-rendering="crispEdges"/><rect fill="#1e1f20" x="1183.4" y="562.7" width="12.2" height="24.65" shape-rendering="crispEdges"/><rect fill="#131314" x="1195.6" y="562.7" width="24.4" height="24.65" shape-rendering="crispEdges"/><rect fill="#131314" x="0" y="587.1" width="24.4" height="24.65" shape-rendering="crispEdges"/><rect fill="#1e1f20" x="24.4" y="587.1" width="12.2" height="24.65" shape-rendering="crispEdges"/><rect fill="#1e1f20" x="36.6" y="587.1" width="1146.8" height="24.65" shape-rendering="crispEdges"/><rect fill="#1e1f20" x="1183.4" y="587.1" width="12.2" height="24.65" shape-rendering="crispEdges"/><rect fill="#131314" x="1195.6" y="587.1" width="24.4" height="24.65" shape-rendering="crispEdges"/><rect fill="#131314" x="0" y="611.5" width="24.4" height="24.65" shape-rendering="crispEdges"/><rect fill="#131314" x="24.4" y="611.5" width="1171.2" height="24.65" shape-rendering="crispEdges"/><rect fill="#131314" x="1195.6" y="611.5" width="24.4" height="24.65" shape-rendering="crispEdges"/><rect fill="#131314" x="0" y="635.9" width="1220" height="24.65" shape-rendering="crispEdges"/><rect fill="#1e1f20" x="0" y="660.3" width="1220" height="24.65" shape-rendering="crispEdges"/><rect fill="#1e1f20" x="0" y="684.7" width="24.4" height="24.65" shape-rendering="crispEdges"/><rect fill="#1e1f20" x="24.4" y="684.7" width="610" height="24.65" shape-rendering="crispEdges"/><rect fill="#1e1f20" x="634.4" y="684.7" width="24.4" height="24.65" shape-rendering="crispEdges"/><rect fill="#1e1f20" x="658.8" y="684.7" width="536.8" height="24.65" shape-rendering="crispEdges"/><rect fill="#1e1f20" x="1195.6" y="684.7" width="24.4" height="24.65" shape-rendering="crispEdges"/><rect fill="#1e1f20" x="0" y="709.1" width="24.4" height="24.65" shape-rendering="crispEdges"/><rect fill="#1e1f20" x="24.4" y="709.1" width="183" height="24.65" shape-rendering="crispEdges"/><rect fill="#1e1f20" x="207.4" y="709.1" width="451.4" height="24.65" shape-rendering="crispEdges"/><rect fill="#1e1f20" x="658.8" y="709.1" width="536.8" height="24.65" shape-rendering="crispEdges"/><rect fill="#1e1f20" x="1195.6" y="709.1" width="24.4" height="24.65" shape-rendering="crispEdges"/>
    <g class="terminal-1058886805-matrix">
    <text class="terminal-1058886805-r2" x="24.4" y="20" textLength="183" clip-path="url(#terminal-1058886805-line-0)">⚡&#160;Google&#160;Cloud&#160;</text><text class="terminal-1058886805-r3" x="219.6" y="20" textLength="207.4" clip-path="url(#terminal-1058886805-line-0)">│&#160;Agent&#160;Substrate</text><text class="terminal-1058886805-r4" x="488" y="20" textLength="231.8" clip-path="url(#terminal-1058886805-line-0)">&#160;✓&#160;🩺&#160;1.&#160;Pre-Flight&#160;</text><text class="terminal-1058886805-r5" x="732" y="20" textLength="36.6" clip-path="url(#terminal-1058886805-line-0)">&#160;›&#160;</text><text class="terminal-1058886805-r4" x="768.6" y="20" textLength="292.8" clip-path="url(#terminal-1058886805-line-0)">&#160;✓&#160;🛠️&#160;2.&#160;Platform&#160;Setup&#160;</text><text class="terminal-1058886805-r5" x="1061.4" y="20" textLength="36.6" clip-path="url(#terminal-1058886805-line-0)">&#160;›&#160;</text><text class="terminal-1058886805-r4" x="1098" y="20" textLength="85.4" clip-path="url(#terminal-1058886805-line-0)">&#160;✓&#160;🤖&#160;3.</text><text class="terminal-1058886805-r1" x="1220" y="20" textLength="12.2" clip-path="url(#terminal-1058886805-line-0)">
</text><text class="terminal-1058886805-r4" x="695.4" y="44.4" textLength="207.4" clip-path="url(#terminal-1058886805-line-1)">Agent&#160;Deployment&#160;</text><text class="terminal-1058886805-r5" x="902.8" y="44.4" textLength="36.6" clip-path="url(#terminal-1058886805-line-1)">&#160;›&#160;</text><text class="terminal-1058886805-r6" x="939.4" y="44.4" textLength="244" clip-path="url(#terminal-1058886805-line-1)">&#160;[&#160;🛸&#160;4.&#160;Launchpad&#160;]&#160;</text><text class="terminal-1058886805-r1" x="1220" y="44.4" textLength="12.2" clip-path="url(#terminal-1058886805-line-1)">
</text><text class="terminal-1058886805-r7" x="0" y="68.8" textLength="1220" clip-path="url(#terminal-1058886805-line-2)">▁▁▁▁▁▁▁▁▁▁▁▁▁▁▁▁▁▁▁▁▁▁▁▁▁▁▁▁▁▁▁▁▁▁▁▁▁▁▁▁▁▁▁▁▁▁▁▁▁▁▁▁▁▁▁▁▁▁▁▁▁▁▁▁▁▁▁▁▁▁▁▁▁▁▁▁▁▁▁▁▁▁▁▁▁▁▁▁▁▁▁▁▁▁▁▁▁▁▁▁</text><text class="terminal-1058886805-r1" x="1220" y="68.8" textLength="12.2" clip-path="url(#terminal-1058886805-line-2)">
</text><text class="terminal-1058886805-r1" x="1220" y="93.2" textLength="12.2" clip-path="url(#terminal-1058886805-line-3)">
</text><text class="terminal-1058886805-r1" x="1220" y="117.6" textLength="12.2" clip-path="url(#terminal-1058886805-line-4)">
</text><text class="terminal-1058886805-r5" x="24.4" y="142" textLength="12.2" clip-path="url(#terminal-1058886805-line-5)">╭</text><text class="terminal-1058886805-r5" x="36.6" y="142" textLength="1146.8" clip-path="url(#terminal-1058886805-line-5)">──────────────────────────────────────────────────────────────────────────────────────────────</text><text class="terminal-1058886805-r5" x="1183.4" y="142" textLength="12.2" clip-path="url(#terminal-1058886805-line-5)">╮</text><text class="terminal-1058886805-r1" x="1220" y="142" textLength="12.2" clip-path="url(#terminal-1058886805-line-5)">
</text><text class="terminal-1058886805-r5" x="24.4" y="166.4" textLength="12.2" clip-path="url(#terminal-1058886805-line-6)">│</text><text class="terminal-1058886805-r5" x="1183.4" y="166.4" textLength="12.2" clip-path="url(#terminal-1058886805-line-6)">│</text><text class="terminal-1058886805-r1" x="1220" y="166.4" textLength="12.2" clip-path="url(#terminal-1058886805-line-6)">
</text><text class="terminal-1058886805-r5" x="24.4" y="190.8" textLength="12.2" clip-path="url(#terminal-1058886805-line-7)">│</text><text class="terminal-1058886805-r8" x="73.2" y="190.8" textLength="695.4" clip-path="url(#terminal-1058886805-line-7)">🛸&#160;&#160;STEP&#160;4:&#160;CLUSTER&#160;LAUNCHPAD&#160;&amp;&#160;3-PHASE&#160;OPERATIONS&#160;RUNBOOK</text><text class="terminal-1058886805-r5" x="1183.4" y="190.8" textLength="12.2" clip-path="url(#terminal-1058886805-line-7)">│</text><text class="terminal-1058886805-r1" x="1220" y="190.8" textLength="12.2" clip-path="url(#terminal-1058886805-line-7)">
</text><text class="terminal-1058886805-r5" x="24.4" y="215.2" textLength="12.2" clip-path="url(#terminal-1058886805-line-8)">│</text><text class="terminal-1058886805-r5" x="1183.4" y="215.2" textLength="12.2" clip-path="url(#terminal-1058886805-line-8)">│</text><text class="terminal-1058886805-r1" x="1220" y="215.2" textLength="12.2" clip-path="url(#terminal-1058886805-line-8)">
</text><text class="terminal-1058886805-r5" x="24.4" y="239.6" textLength="12.2" clip-path="url(#terminal-1058886805-line-9)">│</text><text class="terminal-1058886805-r9" x="73.2" y="239.6" textLength="1037" clip-path="url(#terminal-1058886805-line-9)">Review&#160;your&#160;GKE&#160;Substrate&#160;profile&#160;before&#160;compiling&#160;manifests&#160;&amp;&#160;starting&#160;worker&#160;pools:</text><text class="terminal-1058886805-r5" x="1183.4" y="239.6" textLength="12.2" clip-path="url(#terminal-1058886805-line-9)">│</text><text class="terminal-1058886805-r1" x="1220" y="239.6" textLength="12.2" clip-path="url(#terminal-1058886805-line-9)">
</text><text class="terminal-1058886805-r5" x="24.4" y="264" textLength="12.2" clip-path="url(#terminal-1058886805-line-10)">│</text><text class="terminal-1058886805-r5" x="1183.4" y="264" textLength="12.2" clip-path="url(#terminal-1058886805-line-10)">│</text><text class="terminal-1058886805-r1" x="1220" y="264" textLength="12.2" clip-path="url(#terminal-1058886805-line-10)">
</text><text class="terminal-1058886805-r5" x="24.4" y="288.4" textLength="12.2" clip-path="url(#terminal-1058886805-line-11)">│</text><text class="terminal-1058886805-r8" x="73.2" y="288.4" textLength="36.6" clip-path="url(#terminal-1058886805-line-11)">╭──</text><text class="terminal-1058886805-r6" x="109.8" y="288.4" textLength="305" clip-path="url(#terminal-1058886805-line-11)">&#160;⚙&#160;GKE&#160;SUBSTRATE&#160;PROFILE&#160;</text><text class="terminal-1058886805-r8" x="414.8" y="288.4" textLength="683.2" clip-path="url(#terminal-1058886805-line-11)">───────────────────────────────────────────────────────╮</text><text class="terminal-1058886805-r5" x="1183.4" y="288.4" textLength="12.2" clip-path="url(#terminal-1058886805-line-11)">│</text><text class="terminal-1058886805-r1" x="1220" y="288.4" textLength="12.2" clip-path="url(#terminal-1058886805-line-11)">
</text><text class="terminal-1058886805-r5" x="24.4" y="312.8" textLength="12.2" clip-path="url(#terminal-1058886805-line-12)">│</text><text class="terminal-1058886805-r8" x="73.2" y="312.8" textLength="36.6" clip-path="url(#terminal-1058886805-line-12)">│&#160;&#160;</text><text class="terminal-1058886805-r9" x="109.8" y="312.8" textLength="292.8" clip-path="url(#terminal-1058886805-line-12)">Persona&#160;&amp;&#160;Target&#160;&#160;&#160;&#160;&#160;&#160;:&#160;</text><text class="terminal-1058886805-r3" x="402.6" y="312.8" textLength="488" clip-path="url(#terminal-1058886805-line-12)">🛠️&#160;Platform&#160;Engineer&#160;—&#160;Fleet&#160;WorkerPools</text><text class="terminal-1058886805-r8" x="890.6" y="312.8" textLength="207.4" clip-path="url(#terminal-1058886805-line-12)">&#160;&#160;&#160;&#160;&#160;&#160;&#160;&#160;&#160;&#160;&#160;&#160;&#160;&#160;&#160;&#160;│</text><text class="terminal-1058886805-r5" x="1183.4" y="312.8" textLength="12.2" clip-path="url(#terminal-1058886805-line-12)">│</text><text class="terminal-1058886805-r1" x="1220" y="312.8" textLength="12.2" clip-path="url(#terminal-1058886805-line-12)">
</text><text class="terminal-1058886805-r5" x="24.4" y="337.2" textLength="12.2" clip-path="url(#terminal-1058886805-line-13)">│</text><text class="terminal-1058886805-r8" x="73.2" y="337.2" textLength="36.6" clip-path="url(#terminal-1058886805-line-13)">│&#160;&#160;</text><text class="terminal-1058886805-r9" x="109.8" y="337.2" textLength="292.8" clip-path="url(#terminal-1058886805-line-13)">WorkerPool&#160;Topology&#160;&#160;&#160;:&#160;</text><text class="terminal-1058886805-r3" x="402.6" y="337.2" textLength="634.4" clip-path="url(#terminal-1058886805-line-13)">⚡&#160;MicroVM&#160;WorkerPool&#160;+&#160;Envoy&#160;Dataplane&#160;(Recommended)</text><text class="terminal-1058886805-r8" x="1049.2" y="337.2" textLength="48.8" clip-path="url(#terminal-1058886805-line-13)">&#160;&#160;&#160;│</text><text class="terminal-1058886805-r5" x="1183.4" y="337.2" textLength="12.2" clip-path="url(#terminal-1058886805-line-13)">│</text><text class="terminal-1058886805-r1" x="1220" y="337.2" textLength="12.2" clip-path="url(#terminal-1058886805-line-13)">
</text><text class="terminal-1058886805-r5" x="24.4" y="361.6" textLength="12.2" clip-path="url(#terminal-1058886805-line-14)">│</text><text class="terminal-1058886805-r8" x="73.2" y="361.6" textLength="36.6" clip-path="url(#terminal-1058886805-line-14)">│&#160;&#160;</text><text class="terminal-1058886805-r9" x="109.8" y="361.6" textLength="292.8" clip-path="url(#terminal-1058886805-line-14)">Optimization&#160;&amp;&#160;Runtime:&#160;</text><text class="terminal-1058886805-r3" x="402.6" y="361.6" textLength="597.8" clip-path="url(#terminal-1058886805-line-14)">⚡&#160;Local&#160;SSD&#160;Image&#160;Pre-caching&#160;(RL&#160;&amp;&#160;Large&#160;Models)</text><text class="terminal-1058886805-r8" x="1012.6" y="361.6" textLength="85.4" clip-path="url(#terminal-1058886805-line-14)">&#160;&#160;&#160;&#160;&#160;&#160;│</text><text class="terminal-1058886805-r5" x="1183.4" y="361.6" textLength="12.2" clip-path="url(#terminal-1058886805-line-14)">│</text><text class="terminal-1058886805-r1" x="1220" y="361.6" textLength="12.2" clip-path="url(#terminal-1058886805-line-14)">
</text><text class="terminal-1058886805-r5" x="24.4" y="386" textLength="12.2" clip-path="url(#terminal-1058886805-line-15)">│</text><text class="terminal-1058886805-r8" x="73.2" y="386" textLength="36.6" clip-path="url(#terminal-1058886805-line-15)">│&#160;&#160;</text><text class="terminal-1058886805-r9" x="109.8" y="386" textLength="292.8" clip-path="url(#terminal-1058886805-line-15)">Developer&#160;Tooling&#160;&#160;&#160;&#160;&#160;:&#160;</text><text class="terminal-1058886805-r3" x="402.6" y="386" textLength="317.2" clip-path="url(#terminal-1058886805-line-15)">⚡&#160;Cursor&#160;/&#160;Windsurf&#160;AI&#160;IDE</text><text class="terminal-1058886805-r8" x="732" y="386" textLength="366" clip-path="url(#terminal-1058886805-line-15)">&#160;&#160;&#160;&#160;&#160;&#160;&#160;&#160;&#160;&#160;&#160;&#160;&#160;&#160;&#160;&#160;&#160;&#160;&#160;&#160;&#160;&#160;&#160;&#160;&#160;&#160;&#160;&#160;&#160;│</text><text class="terminal-1058886805-r5" x="1183.4" y="386" textLength="12.2" clip-path="url(#terminal-1058886805-line-15)">│</text><text class="terminal-1058886805-r1" x="1220" y="386" textLength="12.2" clip-path="url(#terminal-1058886805-line-15)">
</text><text class="terminal-1058886805-r5" x="24.4" y="410.4" textLength="12.2" clip-path="url(#terminal-1058886805-line-16)">│</text><text class="terminal-1058886805-r8" x="73.2" y="410.4" textLength="36.6" clip-path="url(#terminal-1058886805-line-16)">│&#160;&#160;</text><text class="terminal-1058886805-r9" x="109.8" y="410.4" textLength="292.8" clip-path="url(#terminal-1058886805-line-16)">Authentication&#160;Mode&#160;&#160;&#160;:&#160;</text><text class="terminal-1058886805-r3" x="402.6" y="410.4" textLength="170.8" clip-path="url(#terminal-1058886805-line-16)">Local&#160;Dev&#160;Mode</text><text class="terminal-1058886805-r8" x="573.4" y="410.4" textLength="524.6" clip-path="url(#terminal-1058886805-line-16)">&#160;&#160;&#160;&#160;&#160;&#160;&#160;&#160;&#160;&#160;&#160;&#160;&#160;&#160;&#160;&#160;&#160;&#160;&#160;&#160;&#160;&#160;&#160;&#160;&#160;&#160;&#160;&#160;&#160;&#160;&#160;&#160;&#160;&#160;&#160;&#160;&#160;&#160;&#160;&#160;&#160;&#160;│</text><text class="terminal-1058886805-r5" x="1183.4" y="410.4" textLength="12.2" clip-path="url(#terminal-1058886805-line-16)">│</text><text class="terminal-1058886805-r1" x="1220" y="410.4" textLength="12.2" clip-path="url(#terminal-1058886805-line-16)">
</text><text class="terminal-1058886805-r5" x="24.4" y="434.8" textLength="12.2" clip-path="url(#terminal-1058886805-line-17)">│</text><text class="terminal-1058886805-r8" x="73.2" y="434.8" textLength="36.6" clip-path="url(#terminal-1058886805-line-17)">│&#160;&#160;</text><text class="terminal-1058886805-r9" x="109.8" y="434.8" textLength="292.8" clip-path="url(#terminal-1058886805-line-17)">GKE&#160;Cluster&#160;Target&#160;&#160;&#160;&#160;:&#160;</text><text class="terminal-1058886805-r3" x="402.6" y="434.8" textLength="402.6" clip-path="url(#terminal-1058886805-line-17)">gke-agent-cluster&#160;(us-central1-a)</text><text class="terminal-1058886805-r8" x="805.2" y="434.8" textLength="292.8" clip-path="url(#terminal-1058886805-line-17)">&#160;&#160;&#160;&#160;&#160;&#160;&#160;&#160;&#160;&#160;&#160;&#160;&#160;&#160;&#160;&#160;&#160;&#160;&#160;&#160;&#160;&#160;&#160;│</text><text class="terminal-1058886805-r5" x="1183.4" y="434.8" textLength="12.2" clip-path="url(#terminal-1058886805-line-17)">│</text><text class="terminal-1058886805-r1" x="1220" y="434.8" textLength="12.2" clip-path="url(#terminal-1058886805-line-17)">
</text><text class="terminal-1058886805-r5" x="24.4" y="459.2" textLength="12.2" clip-path="url(#terminal-1058886805-line-18)">│</text><text class="terminal-1058886805-r8" x="73.2" y="459.2" textLength="36.6" clip-path="url(#terminal-1058886805-line-18)">│&#160;&#160;</text><text class="terminal-1058886805-r9" x="109.8" y="459.2" textLength="292.8" clip-path="url(#terminal-1058886805-line-18)">Pre-Flight&#160;Health&#160;&#160;&#160;&#160;&#160;:&#160;</text><text class="terminal-1058886805-r3" x="402.6" y="459.2" textLength="390.4" clip-path="url(#terminal-1058886805-line-18)">0/6&#160;Diagnostics&#160;Passed&#160;(Healthy)</text><text class="terminal-1058886805-r8" x="793" y="459.2" textLength="305" clip-path="url(#terminal-1058886805-line-18)">&#160;&#160;&#160;&#160;&#160;&#160;&#160;&#160;&#160;&#160;&#160;&#160;&#160;&#160;&#160;&#160;&#160;&#160;&#160;&#160;&#160;&#160;&#160;&#160;│</text><text class="terminal-1058886805-r5" x="1183.4" y="459.2" textLength="12.2" clip-path="url(#terminal-1058886805-line-18)">│</text><text class="terminal-1058886805-r1" x="1220" y="459.2" textLength="12.2" clip-path="url(#terminal-1058886805-line-18)">
</text><text class="terminal-1058886805-r5" x="24.4" y="483.6" textLength="12.2" clip-path="url(#terminal-1058886805-line-19)">│</text><text class="terminal-1058886805-r8" x="73.2" y="483.6" textLength="1024.8" clip-path="url(#terminal-1058886805-line-19)">╰──────────────────────────────────────────────────────────────────────────────────╯</text><text class="terminal-1058886805-r5" x="1183.4" y="483.6" textLength="12.2" clip-path="url(#terminal-1058886805-line-19)">│</text><text class="terminal-1058886805-r1" x="1220" y="483.6" textLength="12.2" clip-path="url(#terminal-1058886805-line-19)">
</text><text class="terminal-1058886805-r5" x="24.4" y="508" textLength="12.2" clip-path="url(#terminal-1058886805-line-20)">│</text><text class="terminal-1058886805-r5" x="1183.4" y="508" textLength="12.2" clip-path="url(#terminal-1058886805-line-20)">│</text><text class="terminal-1058886805-r1" x="1220" y="508" textLength="12.2" clip-path="url(#terminal-1058886805-line-20)">
</text><text class="terminal-1058886805-r5" x="24.4" y="532.4" textLength="12.2" clip-path="url(#terminal-1058886805-line-21)">│</text><text class="terminal-1058886805-r10" x="73.2" y="532.4" textLength="268.4" clip-path="url(#terminal-1058886805-line-21)">━━━━━━━━━━━━━━━━━━━━━━</text><text class="terminal-1058886805-r11" x="341.6" y="532.4" textLength="12.2" clip-path="url(#terminal-1058886805-line-21)">╺</text><text class="terminal-1058886805-r11" x="353.8" y="532.4" textLength="109.8" clip-path="url(#terminal-1058886805-line-21)">━━━━━━━━━</text><text class="terminal-1058886805-r12" x="488" y="532.4" textLength="36.6" clip-path="url(#terminal-1058886805-line-21)">70%</text><text class="terminal-1058886805-r5" x="1183.4" y="532.4" textLength="12.2" clip-path="url(#terminal-1058886805-line-21)">│</text><text class="terminal-1058886805-r1" x="1220" y="532.4" textLength="12.2" clip-path="url(#terminal-1058886805-line-21)">
</text><text class="terminal-1058886805-r5" x="24.4" y="556.8" textLength="12.2" clip-path="url(#terminal-1058886805-line-22)">│</text><text class="terminal-1058886805-r5" x="1183.4" y="556.8" textLength="12.2" clip-path="url(#terminal-1058886805-line-22)">│</text><text class="terminal-1058886805-r1" x="1220" y="556.8" textLength="12.2" clip-path="url(#terminal-1058886805-line-22)">
</text><text class="terminal-1058886805-r5" x="24.4" y="581.2" textLength="12.2" clip-path="url(#terminal-1058886805-line-23)">│</text><text class="terminal-1058886805-r5" x="1183.4" y="581.2" textLength="12.2" clip-path="url(#terminal-1058886805-line-23)">│</text><text class="terminal-1058886805-r1" x="1220" y="581.2" textLength="12.2" clip-path="url(#terminal-1058886805-line-23)">
</text><text class="terminal-1058886805-r5" x="24.4" y="605.6" textLength="12.2" clip-path="url(#terminal-1058886805-line-24)">╰</text><text class="terminal-1058886805-r5" x="36.6" y="605.6" textLength="1146.8" clip-path="url(#terminal-1058886805-line-24)">──────────────────────────────────────────────────────────────────────────────────────────────</text><text class="terminal-1058886805-r5" x="1183.4" y="605.6" textLength="12.2" clip-path="url(#terminal-1058886805-line-24)">╯</text><text class="terminal-1058886805-r1" x="1220" y="605.6" textLength="12.2" clip-path="url(#terminal-1058886805-line-24)">
</text><text class="terminal-1058886805-r1" x="1220" y="630" textLength="12.2" clip-path="url(#terminal-1058886805-line-25)">
</text><text class="terminal-1058886805-r1" x="1220" y="654.4" textLength="12.2" clip-path="url(#terminal-1058886805-line-26)">
</text><text class="terminal-1058886805-r7" x="0" y="678.8" textLength="1220" clip-path="url(#terminal-1058886805-line-27)">▔▔▔▔▔▔▔▔▔▔▔▔▔▔▔▔▔▔▔▔▔▔▔▔▔▔▔▔▔▔▔▔▔▔▔▔▔▔▔▔▔▔▔▔▔▔▔▔▔▔▔▔▔▔▔▔▔▔▔▔▔▔▔▔▔▔▔▔▔▔▔▔▔▔▔▔▔▔▔▔▔▔▔▔▔▔▔▔▔▔▔▔▔▔▔▔▔▔▔▔</text><text class="terminal-1058886805-r1" x="1220" y="678.8" textLength="12.2" clip-path="url(#terminal-1058886805-line-27)">
</text><text class="terminal-1058886805-r13" x="24.4" y="703.2" textLength="597.8" clip-path="url(#terminal-1058886805-line-28)">💡&#160;&#160;Compiling&#160;substrate&#160;manifests&#160;and&#160;initializing</text><text class="terminal-1058886805-r14" x="658.8" y="703.2" textLength="536.8" clip-path="url(#terminal-1058886805-line-28)">[Enter]&#160;Launch&#160;Agent&#160;Substrate&#160;&#160;[/help]&#160;Help</text><text class="terminal-1058886805-r1" x="1220" y="703.2" textLength="12.2" clip-path="url(#terminal-1058886805-line-28)">
</text><text class="terminal-1058886805-r13" x="24.4" y="727.6" textLength="183" clip-path="url(#terminal-1058886805-line-29)">worker&#160;pools...</text>
    </g>
    </g>
</svg>
